<svg xmlns="http://www.w3.org/2000/svg" xmlns:xlink="http://www.w3.org/1999/xlink" contentStyleType="text/css" data-diagram-type="DESCRIPTION" height="676px" preserveAspectRatio="none" style="width:817px;height:676px;background:#FFFFFF;" version="1.1" viewBox="0 0 817 676" width="817px" zoomAndPan="magnify"><defs/><g><!--cluster Frontend--><g class="cluster" data-entity="Frontend" data-source-line="1" data-uid="ent0002" id="cluster_Frontend"><path d="M267.5,6 L340.7285,6 A3.75,3.75 0 0 1 343.2285,8.5 L350.2285,28.2969 L460.5,28.2969 A2.5,2.5 0 0 1 463,30.7969 L463,100.5 A2.5,2.5 0 0 1 460.5,103 L267.5,103 A2.5,2.5 0 0 1 265,100.5 L265,8.5 A2.5,2.5 0 0 1 267.5,6" fill="none" style="stroke:#000000;stroke-width:1.5;"/><line style="stroke:#000000;stroke-width:1.5;" x1="265" x2="350.2285" y1="28.2969" y2="28.2969"/><text fill="#000000" font-family="sans-serif" font-size="14" font-weight="bold" lengthAdjust="spacing" textLength="72.2285" x="269" y="20.9951">Frontend</text></g><!--cluster Backend--><g class="cluster" data-entity="Backend" data-source-line="5" data-uid="ent0004" id="cluster_Backend"><path d="M8.5,152 L76.7109,152 A3.75,3.75 0 0 1 79.2109,154.5 L86.2109,174.2969 L712.5,174.2969 A2.5,2.5 0 0 1 715,176.7969 L715,537.5 A2.5,2.5 0 0 1 712.5,540 L8.5,540 A2.5,2.5 0 0 1 6,537.5 L6,154.5 A2.5,2.5 0 0 1 8.5,152" fill="none" style="stroke:#000000;stroke-width:1.5;"/><line style="stroke:#000000;stroke-width:1.5;" x1="6" x2="86.2109" y1="174.2969" y2="174.2969"/><text fill="#000000" font-family="sans-serif" font-size="14" font-weight="bold" lengthAdjust="spacing" textLength="67.2109" x="10" y="166.9951">Backend</text></g><!--cluster Services--><g class="cluster" data-entity="Services" data-source-line="8" data-uid="ent0006" id="cluster_Services"><path d="M348.5,296 L416.0342,296 A3.75,3.75 0 0 1 418.5342,298.5 L425.5342,318.2969 L688.5,318.2969 A2.5,2.5 0 0 1 691,320.7969 L691,513.5 A2.5,2.5 0 0 1 688.5,516 L348.5,516 A2.5,2.5 0 0 1 346,513.5 L346,298.5 A2.5,2.5 0 0 1 348.5,296" fill="none" style="stroke:#000000;stroke-width:1.5;"/><line style="stroke:#000000;stroke-width:1.5;" x1="346" x2="425.5342" y1="318.2969" y2="318.2969"/><text fill="#000000" font-family="sans-serif" font-size="14" font-weight="bold" lengthAdjust="spacing" textLength="66.5342" x="350" y="310.9951">Services</text></g><!--cluster Databases--><g class="cluster" data-entity="Databases" data-source-line="15" data-uid="ent0010" id="cluster_Databases"><path d="M401.5,573 L485.3379,573 A3.75,3.75 0 0 1 487.8379,575.5 L494.8379,595.2969 L807.5,595.2969 A2.5,2.5 0 0 1 810,597.7969 L810,666.5 A2.5,2.5 0 0 1 807.5,669 L401.5,669 A2.5,2.5 0 0 1 399,666.5 L399,575.5 A2.5,2.5 0 0 1 401.5,573" fill="none" style="stroke:#000000;stroke-width:1.5;"/><line style="stroke:#000000;stroke-width:1.5;" x1="399" x2="494.8379" y1="595.2969" y2="595.2969"/><text fill="#000000" font-family="sans-serif" font-size="14" font-weight="bold" lengthAdjust="spacing" textLength="82.8379" x="403" y="587.9951">Databases</text></g><!--entity ClientApp--><g class="entity" data-entity="ClientApp" data-source-line="2" data-uid="ent0003" id="entity_ClientApp"><rect fill="#F1F1F1" height="46.2969" rx="2.5" ry="2.5" style="stroke:#181818;stroke-width:0.5;" width="166.9639" x="280.5" y="41"/><rect fill="#F1F1F1" height="10" style="stroke:#181818;stroke-width:0.5;" width="15" x="427.4639" y="46"/><rect fill="#F1F1F1" height="2" style="stroke:#181818;stroke-width:0.5;" width="4" x="425.4639" y="48"/><rect fill="#F1F1F1" height="2" style="stroke:#181818;stroke-width:0.5;" width="4" x="425.4639" y="52"/><text fill="#000000" font-family="sans-serif" font-size="14" lengthAdjust="spacing" textLength="126.9639" x="295.5" y="73.9951">Web/Mobile Client</text></g><!--entity Gateway--><g class="entity" data-entity="Gateway" data-source-line="6" data-uid="ent0005" id="entity_Gateway"><rect fill="#F1F1F1" height="46.2969" rx="2.5" ry="2.5" style="stroke:#181818;stroke-width:0.5;" width="194.6563" x="266.5" y="187"/><rect fill="#F1F1F1" height="10" style="stroke:#181818;stroke-width:0.5;" width="15" x="441.1563" y="192"/><rect fill="#F1F1F1" height="2" style="stroke:#181818;stroke-width:0.5;" width="4" x="439.1563" y="194"/><rect fill="#F1F1F1" height="2" style="stroke:#181818;stroke-width:0.5;" width="4" x="439.1563" y="198"/><text fill="#000000" font-family="sans-serif" font-size="14" lengthAdjust="spacing" textLength="154.6563" x="281.5" y="219.9951">GraphQL API Gateway</text></g><!--entity CatalogService--><g class="entity" data-entity="CatalogService" data-source-line="9" data-uid="ent0007" id="entity_CatalogService"><rect fill="#F1F1F1" height="46.2969" rx="2.5" ry="2.5" style="stroke:#181818;stroke-width:0.5;" width="149.9561" x="362" y="454"/><rect fill="#F1F1F1" height="10" style="stroke:#181818;stroke-width:0.5;" width="15" x="491.9561" y="459"/><rect fill="#F1F1F1" height="2" style="stroke:#181818;stroke-width:0.5;" width="4" x="489.9561" y="461"/><rect fill="#F1F1F1" height="2" style="stroke:#181818;stroke-width:0.5;" width="4" x="489.9561" y="465"/><text fill="#000000" font-family="sans-serif" font-size="14" lengthAdjust="spacing" textLength="109.9561" x="377" y="486.9951">Catalog Service</text></g><!--entity UserService--><g class="entity" data-entity="UserService" data-source-line="10" data-uid="ent0008" id="entity_UserService"><rect fill="#F1F1F1" height="46.2969" rx="2.5" ry="2.5" style="stroke:#181818;stroke-width:0.5;" width="128.1016" x="547" y="454"/><rect fill="#F1F1F1" height="10" style="stroke:#181818;stroke-width:0.5;" width="15" x="655.1016" y="459"/><rect fill="#F1F1F1" height="2" style="stroke:#181818;stroke-width:0.5;" width="4" x="653.1016" y="461"/><rect fill="#F1F1F1" height="2" style="stroke:#181818;stroke-width:0.5;" width="4" x="653.1016" y="465"/><text fill="#000000" font-family="sans-serif" font-size="14" lengthAdjust="spacing" textLength="88.1016" x="562" y="486.9951">User Service</text></g><!--entity SubService--><g class="entity" data-entity="SubService" data-source-line="11" data-uid="ent0009" id="entity_SubService"><rect fill="#F1F1F1" height="46.2969" rx="2.5" ry="2.5" style="stroke:#181818;stroke-width:0.5;" width="183.1787" x="491.5" y="331"/><rect fill="#F1F1F1" height="10" style="stroke:#181818;stroke-width:0.5;" width="15" x="654.6787" y="336"/><rect fill="#F1F1F1" height="2" style="stroke:#181818;stroke-width:0.5;" width="4" x="652.6787" y="338"/><rect fill="#F1F1F1" height="2" style="stroke:#181818;stroke-width:0.5;" width="4" x="652.6787" y="342"/><text fill="#000000" font-family="sans-serif" font-size="14" lengthAdjust="spacing" textLength="143.1787" x="506.5" y="363.9951">Subscription Service</text></g><!--entity CatalogDB--><g class="entity" data-entity="CatalogDB" data-source-line="16" data-uid="ent0011" id="entity_CatalogDB"><path d="M415.5,618 C415.5,608 464.7998,608 464.7998,608 C464.7998,608 514.0996,608 514.0996,618 L514.0996,643.2969 C514.0996,653.2969 464.7998,653.2969 464.7998,653.2969 C464.7998,653.2969 415.5,653.2969 415.5,643.2969 L415.5,618" fill="#F1F1F1" style="stroke:#181818;stroke-width:0.5;"/><path d="M415.5,618 C415.5,628 464.7998,628 464.7998,628 C464.7998,628 514.0996,628 514.0996,618" fill="none" style="stroke:#181818;stroke-width:0.5;"/><text fill="#000000" font-family="sans-serif" font-size="14" lengthAdjust="spacing" textLength="78.5996" x="425.5" y="644.9951">Catalog DB</text></g><!--entity UserDB--><g class="entity" data-entity="UserDB" data-source-line="17" data-uid="ent0012" id="entity_UserDB"><path d="M549.5,618 C549.5,608 587.8726,608 587.8726,608 C587.8726,608 626.2451,608 626.2451,618 L626.2451,643.2969 C626.2451,653.2969 587.8726,653.2969 587.8726,653.2969 C587.8726,653.2969 549.5,653.2969 549.5,643.2969 L549.5,618" fill="#F1F1F1" style="stroke:#181818;stroke-width:0.5;"/><path d="M549.5,618 C549.5,628 587.8726,628 587.8726,628 C587.8726,628 626.2451,628 626.2451,618" fill="none" style="stroke:#181818;stroke-width:0.5;"/><text fill="#000000" font-family="sans-serif" font-size="14" lengthAdjust="spacing" textLength="56.7451" x="559.5" y="644.9951">User DB</text></g><!--entity SubDB--><g class="entity" data-entity="SubDB" data-source-line="18" data-uid="ent0013" id="entity_SubDB"><path d="M662,618 C662,608 727.9111,608 727.9111,608 C727.9111,608 793.8223,608 793.8223,618 L793.8223,643.2969 C793.8223,653.2969 727.9111,653.2969 727.9111,653.2969 C727.9111,653.2969 662,653.2969 662,643.2969 L662,618" fill="#F1F1F1" style="stroke:#181818;stroke-width:0.5;"/><path d="M662,618 C662,628 727.9111,628 727.9111,628 C727.9111,628 793.8223,628 793.8223,618" fill="none" style="stroke:#181818;stroke-width:0.5;"/><text fill="#000000" font-family="sans-serif" font-size="14" lengthAdjust="spacing" textLength="111.8223" x="672" y="644.9951">Subscription DB</text></g><!--link ClientApp to Gateway--><g class="link" data-entity-1="ClientApp" data-entity-2="Gateway" data-source-line="22" data-uid="lnk14" id="link_ClientApp_Gateway"><path d="M364,87.18 C364,114.17 364,153.45 364,180.55" fill="none" id="ClientApp-to-Gateway" style="stroke:#181818;stroke-width:1;"/><polygon fill="#181818" points="364,186.55,368,177.55,364,181.55,360,177.55,364,186.55" style="stroke:#181818;stroke-width:1;"/><text fill="#000000" font-family="sans-serif" font-size="13" lengthAdjust="spacing" textLength="180.2544" x="365" y="132.0669">GraphQL Queries/Mutations</text></g><!--link Gateway to CatalogService--><g class="link" data-entity-1="Gateway" data-entity-2="CatalogService" data-source-line="24" data-uid="lnk15" id="link_Gateway_CatalogService"><path d="M266.43,225.09 C194.85,237.66 106.38,258.63 84,288 C60.02,319.46 60.1,345.48 84,377 C117.45,421.13 262.5823,450.0715 355.9223,464.6915" fill="none" id="Gateway-to-CatalogService" style="stroke:#181818;stroke-width:1;"/><polygon fill="#181818" points="361.85,465.62,353.5774,460.2755,356.9102,464.8463,352.3394,468.1791,361.85,465.62" style="stroke:#181818;stroke-width:1;"/><text fill="#000000" font-family="sans-serif" font-size="13" lengthAdjust="spacing" textLength="235.7012" x="85" y="358.5669">Catalog / Category / Series &#1079;&#1072;&#1087;&#1088;&#1086;&#1089;&#1099;</text></g><!--link Gateway to UserService--><g class="link" data-entity-1="Gateway" data-entity-2="UserService" data-source-line="25" data-uid="lnk16" id="link_Gateway_UserService"><path d="M360.02,233.28 C355.18,267.58 351.11,333.88 382,377 C402.15,405.12 480.6172,434.8349 541.0672,454.6049" fill="none" id="Gateway-to-UserService" style="stroke:#181818;stroke-width:1;"/><polygon fill="#181818" points="546.77,456.47,539.4592,449.8705,542.0177,454.9158,536.9725,457.4742,546.77,456.47" style="stroke:#181818;stroke-width:1;"/><text fill="#000000" font-family="sans-serif" font-size="13" lengthAdjust="spacing" textLength="90.7588" x="383" y="358.5669">User &#1079;&#1072;&#1087;&#1088;&#1086;&#1089;&#1099;</text></g><!--link Gateway to SubService--><g class="link" data-entity-1="Gateway" data-entity-2="SubService" data-source-line="26" data-uid="lnk17" id="link_Gateway_SubService"><path d="M400.62,233.15 C425.45,248.32 458.92,269.04 488,288 C509.43,301.97 528.2504,314.7996 546.6404,327.5596" fill="none" id="Gateway-to-SubService" style="stroke:#181818;stroke-width:1;"/><polygon fill="#181818" points="551.57,330.98,546.4559,322.563,547.462,328.1297,541.8954,329.1358,551.57,330.98" style="stroke:#181818;stroke-width:1;"/><text fill="#000000" font-family="sans-serif" font-size="13" lengthAdjust="spacing" textLength="141.9019" x="475" y="276.0669">Subscription &#1079;&#1072;&#1087;&#1088;&#1086;&#1089;&#1099;</text></g><!--link CatalogService to CatalogDB--><g class="link" data-entity-1="CatalogService" data-entity-2="CatalogDB" data-source-line="28" data-uid="lnk18" id="link_CatalogService_CatalogDB"><path d="M441.07,500.03 C446.41,528.92 454.6306,573.3797 459.9206,602.0297" fill="none" id="CatalogService-to-CatalogDB" style="stroke:#181818;stroke-width:1;"/><polygon fill="#181818" points="461.01,607.93,463.3094,598.3533,460.1021,603.0131,455.4423,599.8059,461.01,607.93" style="stroke:#181818;stroke-width:1;"/></g><!--link UserService to UserDB--><g class="link" data-entity-1="UserService" data-entity-2="UserDB" data-source-line="29" data-uid="lnk19" id="link_UserService_UserDB"><path d="M607.66,500.03 C603.27,528.92 596.5207,573.348 592.1707,601.998" fill="none" id="UserService-to-UserDB" style="stroke:#181818;stroke-width:1;"/><polygon fill="#181818" points="591.27,607.93,596.5757,599.6324,592.0206,602.9867,588.6663,598.4315,591.27,607.93" style="stroke:#181818;stroke-width:1;"/></g><!--link SubService to SubDB--><g class="link" data-entity-1="SubService" data-entity-2="SubDB" data-source-line="30" data-uid="lnk20" id="link_SubService_SubDB"><path d="M618.98,377.16 C644.14,394.72 676.14,421.64 693,454 C719.48,504.84 725.6983,567.5562 727.2583,601.9762" fill="none" id="SubService-to-SubDB" style="stroke:#181818;stroke-width:1;"/><polygon fill="#181818" points="727.53,607.97,731.1184,598.7981,727.3036,602.9751,723.1266,599.1603,727.53,607.97" style="stroke:#181818;stroke-width:1;"/></g><!--link SubService to UserService--><g class="link" data-entity-1="SubService" data-entity-2="UserService" data-source-line="33" data-uid="lnk21" id="link_SubService_UserService"><path d="M588.14,377.19 C593.19,399.03 599.5079,426.3143 604.5479,448.1043" fill="none" id="SubService-to-UserService" style="stroke:#181818;stroke-width:1;"/><polygon fill="#181818" points="605.9,453.95,607.769,444.2801,604.7733,449.0786,599.9747,446.0829,605.9,453.95" style="stroke:#181818;stroke-width:1;"/><text fill="#000000" font-family="sans-serif" font-size="13" lengthAdjust="spacing" textLength="40.4409" x="599" y="420.0669">userId</text></g><!--link SubService to CatalogService--><g class="link" data-entity-1="SubService" data-entity-2="CatalogService" data-source-line="34" data-uid="lnk22" id="link_SubService_CatalogService"><path d="M549.94,377.1 C537.17,386.01 522.62,396.62 510,407 C492.08,421.73 477.3513,435.5662 463.2213,449.5062" fill="none" id="SubService-to-CatalogService" style="stroke:#181818;stroke-width:1;"/><polygon fill="#181818" points="458.95,453.72,468.1661,450.2468,462.5094,450.2085,462.5477,444.5518,458.95,453.72" style="stroke:#181818;stroke-width:1;"/><text fill="#000000" font-family="sans-serif" font-size="13" lengthAdjust="spacing" textLength="75.6069" x="511" y="420.0669">magazineId</text></g><!--SRC=[VL7BJiCm4BpxArQv08SgTmv8VOYg4fMeAiJPILR18hKjEm4LL0dE_0mtRl0BwH-nIUms3e_RUdTcTdQiUNhFSuJeqYXPeimYU6O0gTfe9L6M4DrY4YzL8Wg4QI6e5G6thXnhpNQCQIyoeU8tZRdX-cvr1UFh1SnvYOzyswgucX7weB56yo1Ij9r883Fb9IzK3WxI6UbwhZLat5Wq0Rnf_85TLubDZT2bK3BWqE18sGK7psXxmgrtcxddqUfiqdSvcmIWrfr3DFLW71XoCEeHYYoSm5H9YMapjEpm7J0QNVXOuHnyyAiAZK0RBwkITmpcGGqX395utdxSL9WhiwLotMf0_L6_rr_xb_fp_xf_2tHwwP98Uzu_w6Ek10wE7P3Om5_FCeNHN-fDKBkdxfPHiudDA6j7rete_pUL56cR2fogTZylpeRqyBAANejiYFcHueRd_4b8N6JV]--></g></svg>